<svg id="svg" version="1.1" xmlns="http://www.w3.org/2000/svg" xmlns:xlink="http://www.w3.org/1999/xlink" width="400" height="400" viewBox="0, 0, 400,400"><g id="svgg"><path id="path0" d="M150.575 4.102 C 148.339 5.799,147.656 9.212,147.656 18.682 L 147.656 27.888 139.648 28.399 C 119.711 29.671,98.873 38.285,84.524 51.187 C 80.944 54.405,80.292 54.689,76.448 54.703 C 40.290 54.835,0.049 75.216,0.007 93.419 C -0.012 101.812,9.575 102.617,13.655 94.564 C 21.090 79.893,52.076 67.969,82.766 67.969 C 86.461 67.969,86.985 67.699,91.828 63.310 C 107.612 49.006,125.154 42.163,146.875 41.836 C 161.930 41.609,161.719 41.827,161.719 26.526 L 161.719 16.406 200.000 16.406 L 238.281 16.406 238.281 26.526 C 238.281 40.940,239.670 42.859,249.441 41.945 C 269.963 40.026,295.124 48.803,311.830 63.710 C 316.343 67.736,316.830 67.969,320.762 67.969 C 350.000 67.969,378.846 79.850,386.609 95.091 C 390.496 102.724,400.012 101.457,399.993 93.309 C 399.951 75.683,366.637 57.512,329.688 54.960 C 322.311 54.451,322.242 54.427,318.487 51.067 C 303.562 37.714,278.170 28.125,257.735 28.125 L 252.344 28.125 252.344 18.867 C 252.344 9.057,251.518 5.137,249.188 3.890 C 246.900 2.665,152.199 2.868,150.575 4.102 M171.111 126.368 C 168.073 127.896,167.803 128.637,166.469 139.134 C 163.987 158.663,153.820 174.014,138.531 181.320 C 129.677 185.551,128.906 186.246,128.906 190.000 C 128.906 196.783,134.092 198.453,143.149 194.589 C 164.060 185.668,177.700 164.430,180.846 135.892 C 181.469 130.241,180.410 127.566,176.983 126.134 C 173.694 124.760,174.364 124.733,171.111 126.368 M222.846 126.174 C 215.152 129.498,220.576 157.067,232.298 174.219 C 245.506 193.545,271.094 203.953,271.094 190.000 C 271.094 186.246,270.323 185.551,261.469 181.320 C 246.325 174.084,236.210 158.963,233.571 139.615 C 233.090 136.089,232.530 132.058,232.327 130.658 C 231.732 126.550,227.073 124.347,222.846 126.174 M195.204 204.618 L 193.359 206.111 193.146 253.349 C 193.008 283.975,193.213 301.321,193.727 302.675 C 195.610 307.625,204.378 307.658,206.255 302.721 C 207.622 299.126,207.279 208.995,205.888 206.306 C 204.046 202.743,198.585 201.881,195.204 204.618 M44.922 231.400 C 38.169 235.661,25.325 241.346,13.426 245.342 C 1.197 249.449,0.000 250.280,0.000 254.663 C -0.000 264.019,10.420 262.968,37.514 250.878 C 42.398 248.698,46.485 247.005,46.595 247.116 C 46.705 247.226,48.359 253.457,50.271 260.963 C 56.256 284.467,63.202 304.090,70.724 318.750 L 74.131 325.391 78.918 358.944 C 83.818 393.290,84.112 394.699,86.685 396.076 C 87.683 396.610,125.395 396.875,200.375 396.875 L 312.571 396.875 314.489 394.957 C 315.543 393.903,316.406 392.709,316.406 392.305 C 316.406 391.901,319.219 376.814,322.658 358.779 L 328.909 325.987 334.389 314.643 C 340.690 301.596,348.408 279.212,353.175 260.156 C 354.948 253.066,356.485 247.175,356.591 247.064 C 356.696 246.954,361.145 248.945,366.477 251.489 C 391.192 263.280,400.000 264.075,400.000 254.514 C 400.000 250.411,398.410 249.140,389.391 246.033 C 381.063 243.165,364.540 235.386,358.245 231.371 C 351.592 227.127,346.263 227.678,341.272 233.127 C 335.977 238.908,322.245 245.144,308.594 247.966 C 304.021 248.911,303.518 249.973,303.490 258.727 C 303.452 270.301,299.471 278.861,287.952 292.129 C 282.146 298.816,282.195 304.084,288.082 306.323 C 296.270 309.436,315.530 282.244,317.086 265.372 L 317.578 260.041 325.391 257.494 C 329.688 256.093,335.017 254.020,337.233 252.887 L 341.263 250.828 338.599 261.156 C 333.413 281.262,325.611 302.521,318.752 315.230 C 316.009 320.314,315.428 322.673,310.573 348.438 C 307.699 363.691,304.994 377.842,304.562 379.883 L 303.777 383.594 255.404 383.594 L 207.031 383.594 207.031 370.363 C 207.031 352.746,204.897 348.714,197.261 351.905 C 193.394 353.520,192.969 355.350,192.969 370.363 L 192.969 383.594 144.667 383.594 L 96.365 383.594 91.890 352.245 L 87.414 320.897 83.155 312.404 C 76.047 298.230,70.667 283.607,65.252 263.736 C 62.209 252.572,62.209 252.541,65.357 254.132 C 66.579 254.750,70.960 256.371,75.092 257.736 L 82.607 260.217 82.989 265.460 C 84.128 281.076,103.143 308.625,111.360 306.563 C 117.127 305.115,117.934 298.775,113.055 293.249 C 100.550 279.083,95.602 268.468,96.533 257.798 C 97.123 251.035,96.081 248.961,91.621 248.020 C 77.594 245.060,64.084 238.955,58.657 233.124 C 53.795 227.900,51.022 227.552,44.922 231.400 " stroke="none" fill="#000000" fill-rule="evenodd"></path></g></svg>