<svg id="svg" version="1.1" xmlns="http://www.w3.org/2000/svg" xmlns:xlink="http://www.w3.org/1999/xlink" width="400" height="400" viewBox="0, 0, 400,400"><g id="svgg"><path id="path0" d="M145.808 51.619 C 142.863 53.936,143.006 57.691,146.175 61.301 L 148.599 64.063 146.175 66.824 C 139.853 74.024,147.544 81.546,154.416 74.885 L 156.953 72.426 159.754 74.885 C 167.350 81.554,175.034 74.347,168.447 66.732 L 165.800 63.672 168.447 60.740 C 174.929 53.559,166.868 46.241,159.907 52.988 L 157.308 55.507 155.804 53.845 C 152.312 49.987,148.861 49.218,145.808 51.619 M211.097 68.069 C 200.944 73.095,199.339 87.425,208.070 95.091 C 217.565 103.428,233.128 97.594,234.847 85.054 C 236.623 72.100,222.851 62.251,211.097 68.069 M222.009 79.418 C 223.884 81.115,223.825 83.988,221.875 85.938 C 218.849 88.964,214.063 87.009,214.063 82.747 C 214.063 78.583,218.864 76.572,222.009 79.418 M332.701 93.765 C 331.996 94.177,326.778 106.109,321.107 120.279 L 310.796 146.043 279.163 146.264 C 243.787 146.510,245.313 146.247,245.313 152.102 C 245.313 157.779,245.473 157.813,272.562 157.813 L 296.687 157.813 292.777 173.438 L 288.868 189.063 282.083 189.062 C 273.080 189.062,274.779 186.892,257.112 220.971 L 241.583 250.926 231.459 241.274 C 224.705 234.835,219.800 230.845,216.723 229.288 L 212.109 226.953 174.860 226.953 L 137.610 226.953 126.618 198.361 C 120.572 182.636,115.625 169.576,115.625 169.338 C 115.625 169.101,120.227 168.784,125.851 168.633 C 138.871 168.285,139.063 168.122,139.063 157.422 C 139.062 146.556,140.338 147.324,115.565 143.268 C 88.071 138.766,85.033 138.817,77.557 143.899 C 71.893 147.750,67.861 157.126,69.079 163.618 C 69.929 168.150,72.245 168.750,88.882 168.750 L 102.814 168.750 114.297 198.647 C 120.614 215.090,125.781 228.764,125.781 229.033 C 125.781 229.302,122.881 230.976,119.336 232.752 C 80.692 252.114,73.204 303.395,104.684 333.091 L 110.186 338.281 77.806 338.281 L 45.426 338.281 43.807 340.340 C 41.788 342.906,41.746 345.376,43.681 347.765 L 45.174 349.609 200.000 349.609 L 354.826 349.609 356.319 347.765 C 358.350 345.257,358.195 342.499,355.895 340.199 L 353.977 338.281 323.616 338.281 L 293.254 338.281 296.041 332.667 C 300.035 324.621,300.161 313.959,296.353 306.277 L 293.878 301.283 304.361 248.900 C 317.246 184.515,317.106 189.063,306.197 189.063 C 301.304 189.063,300.722 188.907,301.085 187.695 C 301.309 186.943,302.758 181.230,304.303 175.000 C 305.849 168.770,307.460 162.354,307.884 160.742 L 308.654 157.813 320.647 157.813 C 330.956 157.813,332.857 157.621,334.192 156.445 C 335.790 155.038,357.816 100.734,357.814 98.207 C 357.810 93.691,338.636 90.300,332.701 93.765 M342.640 106.055 C 338.805 118.126,326.633 145.737,325.044 145.967 C 323.768 146.152,323.342 145.916,323.631 145.186 C 323.858 144.611,327.285 136.055,331.247 126.172 C 335.209 116.289,338.755 107.412,339.128 106.445 C 339.961 104.283,343.321 103.910,342.640 106.055 M172.371 121.150 C 167.874 124.687,171.306 132.028,176.930 130.903 C 180.211 130.247,181.563 128.613,181.563 125.301 C 181.563 120.176,176.510 117.894,172.371 121.150 M108.594 153.864 L 126.172 156.844 103.575 156.938 L 80.978 157.031 82.872 154.979 C 87.302 150.176,86.936 150.192,108.594 153.864 M302.095 201.758 C 301.865 202.725,297.751 223.203,292.951 247.266 C 288.152 271.328,284.171 291.074,284.104 291.146 C 283.865 291.406,251.165 260.089,250.915 259.360 C 250.692 258.714,270.947 218.929,278.649 204.883 L 281.326 200.000 291.920 200.000 C 302.508 200.000,302.513 200.001,302.095 201.758 M211.483 239.644 C 216.628 242.394,283.876 307.070,285.868 311.184 C 290.575 320.907,284.708 334.265,274.370 337.362 C 269.404 338.850,143.582 338.626,136.328 337.116 C 88.395 327.141,82.706 259.529,128.269 241.327 C 139.149 236.981,204.044 235.668,211.483 239.644 M138.417 250.785 C 113.284 254.535,102.880 287.329,121.057 305.506 C 131.315 315.765,148.018 317.829,160.801 310.418 C 164.093 308.509,164.222 308.496,165.774 309.893 C 167.359 311.321,167.354 311.330,164.818 311.719 C 159.904 312.472,157.951 317.996,161.385 321.430 C 163.639 323.684,200.296 323.223,201.909 320.920 C 205.891 315.234,202.074 311.719,191.917 311.719 L 183.948 311.719 177.841 305.576 L 171.734 299.433 173.328 296.309 C 184.927 273.572,164.472 246.898,138.417 250.785 M152.379 263.661 C 162.065 268.567,167.099 279.235,163.967 288.220 L 163.089 290.737 154.708 282.478 C 145.645 273.546,144.138 272.850,140.340 275.838 C 136.294 279.021,137.255 281.231,146.966 291.073 L 155.650 299.876 152.239 301.633 C 139.487 308.203,123.505 297.730,123.455 282.771 C 123.404 267.762,139.490 257.134,152.379 263.661 M263.594 314.375 C 260.604 317.365,260.146 320.423,262.117 324.234 C 265.969 331.682,277.344 328.461,277.344 319.922 C 277.344 312.108,269.162 308.807,263.594 314.375 " stroke="none" fill="#000000" fill-rule="evenodd"></path></g></svg>