<svg id="svg" version="1.1" xmlns="http://www.w3.org/2000/svg" xmlns:xlink="http://www.w3.org/1999/xlink" width="400" height="400" viewBox="0, 0, 400,400"><g id="svgg"><path id="path0" d="M153.882 43.613 C 152.579 44.668,151.476 47.547,149.637 54.698 L 147.153 64.358 138.616 68.704 C 126.004 75.123,116.977 81.375,106.178 91.170 L 101.028 95.842 93.527 96.335 C 63.350 98.317,36.605 112.308,34.614 127.153 C 33.583 134.838,42.405 136.137,46.124 128.848 C 52.089 117.155,77.825 107.137,102.133 107.047 C 106.102 107.032,106.394 106.871,112.289 101.472 C 124.802 90.011,139.567 80.101,149.398 76.566 C 152.092 75.597,155.037 74.009,155.941 73.038 C 158.358 70.441,163.668 48.775,162.585 45.927 C 161.167 42.198,156.998 41.089,153.882 43.613 M170.703 43.121 C 165.991 45.793,166.604 47.837,180.067 74.350 C 193.758 101.312,193.654 101.172,200.000 101.172 C 206.330 101.172,206.192 101.357,219.915 74.461 C 233.960 46.935,234.615 44.235,227.674 42.493 C 223.822 41.526,222.268 43.736,211.123 66.044 C 205.228 77.845,200.220 87.500,199.995 87.500 C 199.770 87.500,194.845 77.972,189.051 66.327 C 177.163 42.436,175.537 40.380,170.703 43.121 M238.636 44.105 C 236.198 46.544,236.186 46.345,239.574 59.881 C 242.849 72.961,243.560 74.035,250.391 76.220 C 261.583 79.799,277.152 89.588,289.304 100.689 L 295.982 106.789 303.986 107.314 C 326.552 108.792,345.766 116.340,352.088 126.209 C 357.010 133.894,360.502 135.591,364.063 132.031 C 369.331 126.762,359.805 113.306,345.703 106.096 C 334.819 100.532,317.179 96.094,305.947 96.094 C 302.085 96.094,301.634 95.864,296.454 91.262 C 284.550 80.686,272.965 73.114,260.216 67.579 L 252.853 64.383 250.366 54.710 C 247.163 42.255,243.657 39.085,238.636 44.105 M315.625 63.836 C 309.717 66.007,310.835 75.000,317.014 75.000 C 320.602 75.000,322.656 73.013,322.656 69.543 C 322.656 66.737,321.135 64.063,319.539 64.063 C 319.175 64.063,318.410 63.915,317.837 63.734 C 317.265 63.553,316.270 63.599,315.625 63.836 M115.682 113.777 C 113.385 116.697,114.121 121.115,117.098 122.284 C 119.120 123.078,172.020 133.594,173.992 133.594 C 178.229 133.594,180.665 126.833,177.469 123.942 C 176.049 122.656,124.107 111.719,119.424 111.719 C 118.061 111.719,116.721 112.456,115.682 113.777 M244.922 117.279 C 216.233 123.118,215.625 123.345,215.625 128.212 C 215.625 134.848,216.851 134.845,250.422 128.132 C 282.034 121.810,284.277 120.678,278.850 113.777 C 276.602 110.920,275.726 111.010,244.922 117.279 M196.569 161.133 C 195.018 162.526,193.616 166.371,189.801 179.688 C 184.284 198.951,182.727 202.191,177.518 205.253 L 173.828 207.422 137.540 207.647 L 101.252 207.872 90.525 197.165 C 79.003 185.666,77.062 184.611,73.448 187.882 C 69.516 191.440,70.811 193.802,83.844 206.835 L 95.813 218.804 136.773 218.582 L 177.734 218.359 181.725 216.254 C 190.450 211.651,194.117 206.725,197.299 195.329 C 198.502 191.023,199.717 187.500,200.000 187.500 C 200.283 187.500,201.498 191.023,202.701 195.329 C 205.883 206.725,209.550 211.651,218.275 216.254 L 222.266 218.359 265.962 218.580 L 309.659 218.801 321.626 206.833 C 334.657 193.803,335.953 191.440,332.021 187.882 C 328.407 184.611,326.466 185.666,314.946 197.163 L 304.220 207.869 265.196 207.645 L 226.172 207.422 222.482 205.253 C 217.282 202.196,215.736 198.976,210.210 179.688 C 205.225 162.288,203.760 159.375,200.000 159.375 C 199.189 159.375,197.644 160.166,196.569 161.133 M84.918 224.306 C 79.309 227.568,87.439 269.923,98.548 295.313 C 100.710 300.254,105.077 311.504,108.253 320.313 L 114.027 336.328 114.045 345.153 C 114.064 354.939,115.398 357.813,119.922 357.813 C 124.555 357.813,125.781 355.008,125.781 344.407 L 125.781 334.836 119.423 316.832 C 115.926 306.930,111.835 296.368,110.332 293.361 C 105.559 283.815,94.752 246.394,96.316 244.830 C 96.475 244.671,99.127 245.661,102.209 247.030 L 107.813 249.520 107.826 252.690 C 107.882 265.738,119.007 288.281,125.391 288.281 C 131.539 288.281,132.548 282.982,127.779 275.740 C 121.846 266.731,119.935 260.752,119.928 251.172 C 119.921 240.815,120.231 241.352,112.716 238.690 C 103.204 235.320,99.173 232.973,94.398 228.027 C 89.887 223.353,87.897 222.572,84.918 224.306 M311.774 227.214 C 307.072 231.916,300.956 234.987,289.927 238.183 C 279.620 241.170,280.079 240.571,280.072 251.016 C 280.065 260.768,278.187 266.681,272.221 275.740 C 267.452 282.982,268.461 288.281,274.609 288.281 C 281.036 288.281,292.120 265.726,292.174 252.539 C 292.185 249.913,292.473 249.213,293.555 249.193 C 294.307 249.179,298.008 247.993,301.779 246.558 C 307.300 244.458,308.563 244.196,308.261 245.217 C 308.055 245.914,306.964 250.176,305.837 254.688 C 302.858 266.616,297.396 282.516,293.282 291.233 C 291.310 295.410,286.215 306.903,281.958 316.773 L 274.219 334.718 274.219 344.348 C 274.219 355.013,275.437 357.813,280.078 357.813 C 284.573 357.813,285.938 354.920,285.938 345.387 L 285.938 336.796 293.437 319.374 C 297.561 309.793,301.218 301.602,301.562 301.172 C 307.132 294.216,322.656 241.656,322.656 229.751 C 322.656 222.717,317.479 221.509,311.774 227.214 M147.652 236.511 C 146.422 238.075,146.095 239.279,146.434 241.003 C 147.200 244.910,148.484 245.313,160.184 245.313 C 168.943 245.313,172.919 245.732,182.422 247.656 C 188.786 248.945,194.115 250.000,194.263 250.000 C 194.410 250.000,194.531 255.571,194.531 262.379 C 194.531 276.323,194.913 277.344,200.136 277.344 C 205.039 277.344,205.469 276.128,205.469 262.243 C 205.469 255.509,205.590 250.000,205.737 250.000 C 205.885 250.000,211.214 248.945,217.578 247.656 C 227.081 245.732,231.057 245.313,239.816 245.313 C 251.516 245.313,252.800 244.910,253.566 241.003 C 253.905 239.279,253.578 238.075,252.348 236.511 L 250.668 234.375 238.068 234.375 C 227.035 234.375,223.884 234.688,212.734 236.890 L 200.000 239.405 187.266 236.890 C 176.116 234.688,172.965 234.375,161.932 234.375 L 149.332 234.375 147.652 236.511 M144.070 282.791 C 140.305 284.313,140.036 290.981,143.661 292.921 C 144.586 293.416,150.798 293.750,159.083 293.750 C 171.002 293.750,174.477 294.049,183.744 295.870 L 194.531 297.990 194.531 315.671 C 194.531 335.345,194.758 336.198,200.000 336.198 C 205.240 336.198,205.468 335.342,205.472 315.699 L 205.474 298.047 216.995 295.877 C 226.763 294.037,230.514 293.710,241.653 293.728 C 257.901 293.755,261.186 292.196,258.507 285.728 C 256.449 280.759,235.414 280.298,213.414 284.739 L 200.000 287.447 186.586 284.739 C 172.844 281.965,148.833 280.865,144.070 282.791 M62.557 306.746 C 60.282 309.638,60.523 311.255,63.763 314.841 L 66.588 317.969 63.763 321.096 C 57.348 328.196,65.618 335.845,72.238 328.935 L 74.456 326.619 77.380 328.935 C 84.995 334.966,92.217 327.975,85.857 320.730 L 83.432 317.969 85.857 315.207 C 92.085 308.114,84.386 300.584,77.615 307.147 L 75.078 309.606 72.278 307.147 C 68.628 303.942,64.883 303.788,62.557 306.746 M198.438 341.187 C 192.416 343.361,193.674 352.344,200.000 352.344 C 206.566 352.344,207.560 342.868,201.172 341.178 C 200.312 340.950,199.082 340.954,198.438 341.187 " stroke="none" fill="#000000" fill-rule="evenodd"></path></g></svg>