<?xml version="1.0" encoding="iso-8859-1"?>
<!-- Generator: Adobe Illustrator 19.0.0, SVG Export Plug-In . SVG Version: 6.00 Build 0)  -->
<svg version="1.1" id="Layer_1" xmlns="http://www.w3.org/2000/svg" xmlns:xlink="http://www.w3.org/1999/xlink" x="0px" y="0px"
	 viewBox="0 0 512 512" style="enable-background:new 0 0 512 512;" xml:space="preserve">
<g>
	<path style="fill:#4D4D4D;" d="M325.292,275.193H186.701c0-38.271,31.03-69.302,69.302-69.302S325.292,236.922,325.292,275.193z"/>
	<path style="fill:#4D4D4D;" d="M197.268,119.552c17.197,0,31.14,13.931,31.14,31.128c0,17.197-13.943,31.14-31.14,31.14
		s-31.128-13.943-31.128-31.14S180.071,119.552,197.268,119.552z"/>
	<path style="fill:#4D4D4D;" d="M314.724,119.552c17.197,0,31.128,13.931,31.128,31.128c0,17.197-13.931,31.14-31.128,31.14
		s-31.128-13.943-31.128-31.14S297.527,119.552,314.724,119.552z"/>
</g>
<path style="fill:#E6E6E6;" d="M414.689,167.865v292.618c0,19.716-22.787,30.712-38.222,18.432v-0.012
	c-8.586-6.825-20.756-6.825-29.343,0l-23.557,18.75c-8.586,6.837-20.744,6.837-29.33,0l-23.557-18.75
	c-8.586-6.825-20.756-6.825-29.342,0l-23.557,18.763c-8.586,6.825-20.744,6.825-29.33,0l-23.569-18.763
	c-8.586-6.825-20.756-6.825-29.342,0l-0.012,0.012c-15.423,12.28-38.222,1.297-38.222-18.432V167.865
	c0-87.648,71.051-158.687,158.699-158.687c43.812,0,83.49,17.76,112.208,46.478C396.929,84.363,414.689,124.041,414.689,167.865z
	 M345.852,150.68c0-17.197-13.931-31.128-31.128-31.128s-31.128,13.931-31.128,31.128s13.931,31.14,31.128,31.14
	S345.852,167.877,345.852,150.68z M186.701,275.193h138.591c0-38.271-31.018-69.302-69.289-69.302S186.701,236.922,186.701,275.193z
	 M228.409,150.68c0-17.197-13.943-31.128-31.14-31.128s-31.128,13.931-31.128,31.128s13.931,31.14,31.128,31.14
	C214.465,181.821,228.409,167.877,228.409,150.68z"/>
<path style="fill:#CCCCCC;" d="M282.911,11.453c-8.745-1.492-17.735-2.275-26.908-2.275c-87.648,0-158.699,71.038-158.699,158.687
	v292.618c0,19.729,22.799,30.712,38.222,18.432l0.012-0.012c5.798-4.611,13.234-6.103,20.096-4.489
	c-2.813-3.792-4.513-8.537-4.513-13.931V167.865C151.12,89.39,208.081,24.222,282.911,11.453z"/>
<g>
	<path style="fill:#333333;" d="M255.999,0C163.438,0,88.135,75.303,88.135,167.864v292.621c0,12.678,7.094,23.973,18.513,29.48
		c11.418,5.505,24.674,4.023,34.596-3.871c0.012-0.01,0.026-0.021,0.04-0.033c5.272-4.175,12.62-4.168,17.883,0.022l23.567,18.754
		c5.999,4.775,13.19,7.163,20.38,7.163c7.191,0,14.381-2.387,20.382-7.163l23.558-18.752c5.274-4.198,12.638-4.197,17.913,0
		l23.555,18.75c12,9.552,28.764,9.554,40.765,0l23.556-18.749c5.273-4.198,12.64-4.198,17.913,0
		c9.921,7.896,23.177,9.38,34.596,3.874c11.42-5.506,18.514-16.802,18.514-29.481V167.865C423.862,75.303,348.559,0,255.999,0z
		 M405.516,460.48c0,5.656-3.042,10.498-8.135,12.954c-5.096,2.456-10.778,1.82-15.202-1.703c-12.001-9.551-28.763-9.551-40.765,0
		l-23.556,18.749c-5.272,4.199-12.638,4.198-17.913,0l-23.555-18.75c-12.001-9.552-28.764-9.552-40.764,0l-23.558,18.752
		c-5.273,4.197-12.638,4.197-17.911,0l-23.567-18.755c-5.999-4.774-13.19-7.161-20.38-7.161c-7.191,0-14.38,2.387-20.381,7.161
		c-0.011,0.01-0.025,0.021-0.038,0.031c-4.42,3.504-10.091,4.134-15.176,1.682c-5.094-2.456-8.135-7.298-8.135-12.954v-292.62
		c0-82.444,67.073-149.517,149.518-149.517S405.516,85.42,405.516,167.865V460.48z"/>
	<path style="fill:#333333;" d="M237.577,150.683c0-22.225-18.081-40.306-40.305-40.306c-22.225,0-40.306,18.081-40.306,40.306
		s18.081,40.306,40.306,40.306C219.496,190.989,237.577,172.908,237.577,150.683z M175.312,150.683
		c0-12.108,9.851-21.96,21.96-21.96c12.109,0,21.959,9.851,21.959,21.96c0,12.108-9.851,21.96-21.959,21.96
		C185.164,172.642,175.312,162.792,175.312,150.683z"/>
	<path style="fill:#333333;" d="M314.725,110.377c-22.224,0-40.305,18.081-40.305,40.306s18.081,40.306,40.305,40.306
		c22.225,0,40.306-18.081,40.306-40.306C355.032,128.457,336.95,110.377,314.725,110.377z M314.725,172.642
		c-12.108,0-21.959-9.851-21.959-21.96c0-12.108,9.851-21.96,21.959-21.96c12.109,0,21.96,9.851,21.96,21.96
		C336.685,162.792,326.834,172.642,314.725,172.642z"/>
	<path style="fill:#333333;" d="M255.999,196.722c-43.266,0-78.465,35.2-78.465,78.466c0,5.066,4.107,9.173,9.173,9.173h138.585
		c5.066,0,9.173-4.107,9.173-9.173C334.464,231.922,299.265,196.722,255.999,196.722z M196.579,266.015
		c4.429-28.813,29.388-50.946,59.42-50.946c30.032,0,54.991,22.133,59.421,50.946H196.579z"/>
</g>
<g>
</g>
<g>
</g>
<g>
</g>
<g>
</g>
<g>
</g>
<g>
</g>
<g>
</g>
<g>
</g>
<g>
</g>
<g>
</g>
<g>
</g>
<g>
</g>
<g>
</g>
<g>
</g>
<g>
</g>
</svg>
