<svg id="svg" version="1.1" xmlns="http://www.w3.org/2000/svg" xmlns:xlink="http://www.w3.org/1999/xlink" width="400" height="400" viewBox="0, 0, 400,400"><g id="svgg"><path id="path0" d="M69.531 39.844 C 67.698 41.677,67.458 45.878,69.062 48.072 C 70.027 49.392,71.607 49.630,82.539 50.105 C 137.416 52.486,190.451 78.931,240.982 129.109 L 258.135 146.142 268.064 151.191 C 278.696 156.597,282.226 159.099,283.965 162.462 C 285.282 165.010,298.437 208.989,298.438 210.846 C 298.438 215.257,278.853 252.078,250.133 301.663 C 233.302 330.722,219.531 355.196,219.531 356.050 C 219.531 361.535,226.600 363.662,229.934 359.180 C 235.178 352.129,290.899 254.193,299.444 237.007 C 312.153 211.446,311.986 214.192,302.705 183.203 C 293.174 151.379,292.563 150.467,274.841 141.617 C 265.305 136.855,264.887 136.534,255.442 126.773 C 216.466 86.488,179.039 61.918,135.156 47.808 C 110.167 39.773,73.992 35.383,69.531 39.844 M222.903 46.864 C 220.215 47.973,219.531 50.166,219.531 57.675 C 219.531 66.118,220.708 68.281,225.301 68.281 C 230.103 68.281,230.859 66.803,230.859 57.422 C 230.859 47.547,228.578 44.521,222.903 46.864 M240.074 61.167 C 229.647 71.594,228.529 73.842,232.031 77.344 C 235.595 80.908,237.912 79.756,248.282 69.266 C 258.722 58.706,259.502 57.088,255.895 53.480 C 252.248 49.833,250.614 50.627,240.074 61.167 M244.070 78.848 C 240.303 80.456,240.037 87.075,243.661 89.015 C 247.087 90.848,259.245 90.045,261.451 87.839 C 263.662 85.628,263.588 82.004,261.284 79.698 C 259.916 78.329,246.803 77.682,244.070 78.848 M90.355 117.054 C 86.496 121.318,88.558 124.528,98.160 129.208 C 107.979 133.993,125.582 143.555,129.438 146.199 C 133.441 148.943,136.189 149.039,138.707 146.520 C 144.090 141.138,140.331 137.824,112.816 123.690 C 96.264 115.187,92.935 114.203,90.355 117.054 M312.074 117.543 C 308.555 121.061,311.082 127.344,316.016 127.344 C 318.620 127.344,321.875 124.089,321.875 121.484 C 321.875 118.880,318.620 115.625,316.016 115.625 C 314.902 115.625,313.129 116.488,312.074 117.543 M148.168 153.772 C 143.916 158.471,146.754 161.932,164.848 174.114 C 203.199 199.935,254.688 214.067,254.688 198.772 C 254.688 194.303,252.605 192.969,245.631 192.969 C 223.410 192.969,188.919 178.332,160.925 157.022 C 154.213 151.912,150.669 151.009,148.168 153.772 M269.262 165.491 C 265.291 169.879,268.181 185.938,272.942 185.938 C 278.448 185.938,281.810 171.680,277.690 165.799 C 276.125 163.565,271.169 163.384,269.262 165.491 M69.531 194.531 C 57.265 206.797,115.799 225.857,175.301 228.972 C 184.374 229.447,191.881 229.916,191.984 230.014 C 192.088 230.113,189.451 232.091,186.125 234.411 C 168.853 246.460,147.864 265.834,140.882 276.172 C 133.280 287.429,132.198 291.019,131.238 308.203 C 130.364 323.851,128.996 333.439,125.682 347.153 L 123.256 357.196 124.798 359.262 C 126.937 362.127,131.615 362.186,133.707 359.375 C 137.167 354.728,141.758 328.934,142.838 308.080 C 143.403 297.153,143.727 295.113,145.514 291.209 C 152.364 276.246,174.644 255.605,206.084 235.094 L 216.766 228.125 222.390 228.125 C 230.157 228.125,233.451 224.412,229.899 219.659 L 228.344 217.578 198.352 217.556 C 179.433 217.542,165.186 217.170,159.766 216.549 C 125.362 212.605,101.911 206.489,81.034 196.016 C 74.189 192.583,71.790 192.273,69.531 194.531 M229.977 242.004 C 229.492 242.320,227.123 245.836,224.713 249.817 C 209.649 274.702,192.182 297.186,176.276 312.166 C 167.942 320.014,167.144 321.902,170.668 325.426 C 174.501 329.260,178.492 326.984,191.484 313.558 C 208.937 295.522,239.063 253.218,239.063 246.745 C 239.063 242.498,233.600 239.647,229.977 242.004 M89.709 260.271 C 85.435 261.820,85.265 266.570,89.329 270.898 L 91.713 273.438 89.329 275.977 C 82.195 283.574,89.936 291.360,97.461 284.156 L 100.000 281.725 102.539 284.156 C 110.064 291.360,117.805 283.574,110.671 275.977 L 108.287 273.438 110.671 270.898 C 117.941 263.156,110.282 255.497,102.539 262.766 L 100.000 265.150 97.461 262.739 C 94.432 259.864,92.516 259.253,89.709 260.271 M308.984 287.903 C 293.391 296.277,298.569 318.750,316.092 318.750 C 332.374 318.750,338.287 298.524,324.810 288.927 C 321.495 286.566,312.551 285.987,308.984 287.903 M319.176 299.574 C 320.231 300.629,321.094 302.051,321.094 302.734 C 321.094 303.418,320.231 304.840,319.176 305.895 C 318.121 306.950,316.699 307.813,316.016 307.813 C 315.332 307.813,313.910 306.950,312.855 305.895 C 311.800 304.840,310.938 303.418,310.938 302.734 C 310.938 302.051,311.800 300.629,312.855 299.574 C 313.910 298.519,315.332 297.656,316.016 297.656 C 316.699 297.656,318.121 298.519,319.176 299.574 " stroke="none" fill="#000000" fill-rule="evenodd"></path></g></svg>