<svg id="svg" version="1.1" xmlns="http://www.w3.org/2000/svg" xmlns:xlink="http://www.w3.org/1999/xlink" width="400" height="400" viewBox="0, 0, 400,400"><g id="svgg"><path id="path0" d="M78.125 36.362 C 50.307 41.424,18.192 63.983,27.200 72.135 C 30.756 75.354,32.837 74.773,40.258 68.492 C 95.531 21.710,178.906 59.048,178.906 130.584 L 178.906 138.308 174.023 134.483 C 166.650 128.709,161.659 125.781,159.187 125.781 C 155.022 125.781,152.021 130.589,153.607 134.721 C 153.872 135.412,157.124 138.056,160.833 140.598 C 191.064 161.310,222.847 218.051,216.862 240.625 C 214.657 248.941,214.315 258.676,216.170 260.342 C 221.474 265.109,226.303 261.902,227.425 252.867 C 229.441 236.629,242.947 212.431,258.719 196.801 C 269.593 186.024,274.393 182.841,305.120 166.029 C 336.020 149.122,335.394 152.318,312.360 129.102 C 294.163 110.761,293.862 110.316,294.920 103.248 C 295.657 98.323,295.584 98.371,300.212 99.737 C 310.789 102.858,320.336 108.248,329.927 116.512 C 336.010 121.753,339.075 122.454,342.051 119.286 C 345.905 115.183,343.640 110.888,333.203 102.509 L 330.078 100.001 331.929 98.433 C 332.947 97.570,335.685 96.311,338.013 95.634 C 345.049 93.588,347.232 89.370,343.625 84.785 C 340.508 80.821,328.364 83.927,321.731 90.384 L 318.853 93.186 312.747 90.755 C 309.388 89.418,304.883 87.890,302.734 87.359 C 300.586 86.828,298.735 86.344,298.620 86.283 C 297.415 85.641,301.029 75.083,303.081 73.249 L 305.493 71.094 328.723 71.101 C 362.073 71.112,359.889 69.645,375.249 102.360 C 391.775 137.558,391.758 136.393,376.196 167.060 C 363.390 192.296,347.485 217.660,328.141 243.694 L 319.517 255.301 310.735 255.582 C 294.529 256.103,291.246 259.871,290.626 278.664 L 290.234 290.532 282.422 299.364 C 269.249 314.255,237.483 345.701,233.655 347.639 C 227.631 350.688,223.504 349.802,210.156 342.598 C 189.675 331.544,167.566 317.613,148.531 303.768 C 140.324 297.799,137.888 297.197,134.730 300.355 C 132.738 302.348,132.268 305.335,133.565 307.759 C 136.347 312.958,189.563 346.990,211.708 357.733 C 221.463 362.465,231.460 362.951,239.351 359.076 C 244.215 356.689,267.174 334.854,282.813 317.746 L 290.234 309.626 290.734 316.405 C 291.962 333.052,307.333 339.923,317.935 328.564 L 319.855 326.508 338.248 344.857 C 357.443 364.007,358.561 364.844,364.972 364.844 C 370.942 364.844,372.940 363.459,386.131 350.174 C 399.193 337.019,400.000 335.799,400.000 329.195 C 400.000 318.992,388.342 309.349,382.949 315.089 C 380.294 317.915,380.740 321.076,384.375 325.205 C 386.094 327.158,387.500 329.233,387.500 329.818 C 387.500 331.253,366.296 352.344,364.853 352.344 C 364.224 352.344,354.546 343.203,343.345 332.031 C 319.062 307.812,320.100 308.331,312.109 316.406 C 307.446 321.119,305.795 321.888,304.062 320.156 C 302.477 318.571,302.749 270.800,304.353 269.196 C 305.416 268.133,308.840 267.969,329.978 267.969 C 359.889 267.969,360.146 268.076,351.563 277.014 C 344.482 284.388,344.675 285.485,354.883 295.885 C 365.460 306.660,367.967 307.929,372.160 304.631 C 376.195 301.457,375.193 298.198,367.978 291.025 L 361.737 284.821 363.984 282.449 C 370.579 275.490,370.503 265.477,363.810 259.601 C 359.953 256.214,356.689 255.478,345.508 255.473 C 340.244 255.471,335.938 255.332,335.938 255.165 C 335.938 254.998,340.426 248.582,345.913 240.907 C 363.463 216.357,378.133 192.059,390.186 167.578 C 404.374 138.762,404.180 134.130,387.275 98.047 C 373.597 68.850,371.949 66.492,361.719 61.475 L 356.641 58.984 330.514 58.740 C 291.826 58.379,291.205 58.783,285.122 88.262 C 279.846 113.827,280.138 114.767,299.295 134.038 L 312.579 147.402 292.422 158.495 C 258.591 177.114,243.694 189.965,230.750 211.693 C 227.433 217.261,227.482 217.286,224.659 208.594 C 219.828 193.720,205.640 168.576,193.819 153.941 C 190.792 150.193,189.874 148.487,190.243 147.300 C 191.504 143.256,191.565 122.178,190.337 115.128 C 181.069 61.933,130.949 26.752,78.125 36.362 M11.998 84.736 C 11.101 85.364,9.056 88.929,7.454 92.658 C -6.854 125.966,-0.364 167.765,23.151 193.750 C 25.289 196.113,29.350 201.387,32.175 205.469 C 47.257 227.266,64.762 247.271,90.001 271.550 C 113.760 294.406,120.450 298.077,123.325 289.831 C 124.611 286.142,123.520 284.532,114.340 276.566 C 87.773 253.513,60.753 224.051,43.178 198.972 C 39.509 193.736,35.044 187.871,33.255 185.938 C 11.944 162.905,6.294 127.671,19.109 97.731 C 20.630 94.176,21.875 90.306,21.875 89.129 C 21.875 84.693,15.872 82.023,11.998 84.736 M263.777 125.057 C 261.266 127.032,261.207 128.680,263.178 142.042 C 264.805 153.079,265.933 155.000,270.786 155.000 C 276.768 155.000,277.483 151.795,275.042 135.946 C 273.131 123.543,269.798 120.321,263.777 125.057 M235.980 137.457 C 232.808 140.630,233.734 143.452,241.310 153.690 C 248.506 163.417,250.322 164.792,254.079 163.364 C 260.233 161.024,259.534 156.911,251.055 145.573 C 243.345 135.264,239.983 133.454,235.980 137.457 M217.969 158.805 C 215.355 160.152,213.978 163.195,214.684 166.063 C 215.328 168.678,234.265 178.876,238.512 178.896 C 242.948 178.917,245.883 173.517,243.677 169.394 C 241.733 165.762,221.022 157.231,217.969 158.805 " stroke="none" fill="#000000" fill-rule="evenodd"></path></g></svg>