<svg id="svg" version="1.1" xmlns="http://www.w3.org/2000/svg" xmlns:xlink="http://www.w3.org/1999/xlink" width="400" height="400" viewBox="0, 0, 400,400"><g id="svgg"><path id="path0" d="M132.813 95.313 C 130.839 97.286,130.757 103.236,132.440 122.165 C 135.001 150.960,137.256 158.710,145.743 167.876 L 150.129 172.614 149.869 194.334 L 149.609 216.054 147.113 221.113 C 136.843 241.920,120.600 249.167,82.422 249.974 C 52.932 250.598,48.449 251.823,36.509 262.519 C 19.654 277.620,12.119 306.250,25.000 306.250 C 29.104 306.250,31.003 304.304,31.614 299.470 C 33.220 286.766,40.249 275.639,51.114 268.602 C 59.115 263.421,60.837 263.140,88.281 262.535 C 119.459 261.848,125.669 260.202,141.179 248.514 C 158.662 235.340,162.500 226.644,162.500 200.203 C 162.500 190.137,162.764 182.021,163.086 182.169 C 163.408 182.316,166.484 183.885,169.922 185.656 C 181.629 191.689,187.946 193.293,200.000 193.293 C 212.054 193.293,218.371 191.689,230.078 185.656 C 233.516 183.885,236.592 182.316,236.914 182.169 C 237.236 182.021,237.500 190.137,237.500 200.203 C 237.500 226.685,241.298 235.310,258.745 248.457 C 274.332 260.202,280.503 261.843,311.719 262.547 C 342.636 263.244,345.416 263.997,355.946 274.524 C 363.451 282.027,367.108 289.361,368.386 299.470 C 368.997 304.304,370.896 306.250,375.000 306.250 C 387.765 306.250,380.332 277.538,363.744 262.770 C 351.300 251.692,347.300 250.582,317.578 249.965 C 279.408 249.173,263.159 241.926,252.887 221.113 L 250.391 216.054 250.131 194.334 L 249.871 172.614 254.257 167.876 C 262.744 158.710,264.999 150.960,267.560 122.165 C 269.810 96.869,269.254 93.750,262.500 93.750 C 256.421 93.750,256.071 94.709,254.666 115.234 C 252.157 151.905,248.842 159.233,229.584 170.684 C 207.053 184.081,190.136 183.548,167.226 168.719 C 150.766 158.064,147.762 150.727,145.334 115.234 C 144.177 98.339,143.980 97.105,142.144 95.269 C 140.066 93.191,134.910 93.215,132.813 95.313 M170.313 239.063 C 165.586 243.789,174.731 268.750,181.188 268.750 C 188.120 268.750,188.908 263.994,184.278 250.099 C 180.080 237.501,175.496 233.879,170.313 239.063 M220.410 238.965 C 218.523 240.852,212.500 258.880,212.500 262.640 C 212.500 267.992,218.926 270.681,222.901 266.992 C 225.167 264.890,231.250 247.756,231.250 243.477 C 231.250 238.090,224.214 235.161,220.410 238.965 M107.914 270.211 C 105.129 272.996,105.896 279.543,109.158 280.835 C 109.922 281.137,118.633 281.699,128.516 282.084 C 155.119 283.118,168.738 286.673,173.214 293.750 C 177.101 299.898,177.226 300.000,180.839 300.000 C 192.679 300.000,187.197 283.536,172.955 276.325 C 160.397 269.965,112.648 265.477,107.914 270.211 M254.297 269.610 C 237.878 271.323,226.777 275.121,219.948 281.362 C 210.532 289.968,210.108 300.000,219.161 300.000 C 222.774 300.000,222.899 299.898,226.786 293.750 C 231.274 286.654,244.893 283.110,271.584 282.095 C 293.089 281.276,293.750 281.051,293.750 274.545 C 293.750 269.098,292.595 268.736,275.586 268.854 C 267.314 268.911,257.734 269.251,254.297 269.610 " stroke="none" fill="#000000" fill-rule="evenodd"></path></g></svg>