<svg id="svg" version="1.1" xmlns="http://www.w3.org/2000/svg" xmlns:xlink="http://www.w3.org/1999/xlink" width="400" height="400" viewBox="0, 0, 400,400"><g id="svgg"><path id="path0" d="M257.813 14.063 C 256.274 15.601,256.250 16.667,256.250 83.794 L 256.250 151.963 208.008 175.950 L 159.766 199.938 150.967 200.342 C 86.586 203.298,29.483 253.542,15.091 319.896 C 12.133 333.538,11.308 383.183,13.995 385.870 C 15.620 387.495,15.800 387.500,78.125 387.500 C 152.557 387.500,143.749 389.414,143.753 373.242 L 143.757 362.109 150.429 373.828 C 154.099 380.273,157.680 385.986,158.387 386.523 C 160.944 388.465,383.985 387.890,385.938 385.938 C 388.405 383.470,388.405 16.530,385.938 14.063 C 384.401 12.526,383.333 12.500,321.875 12.500 C 260.417 12.500,259.349 12.526,257.813 14.063 M374.980 123.633 L 374.961 222.266 365.605 234.703 C 355.393 248.279,354.274 251.149,357.813 254.688 C 361.524 258.399,365.915 256.783,371.081 249.805 C 372.910 247.334,374.540 245.313,374.703 245.313 C 374.866 245.313,375.000 274.492,375.000 310.156 L 375.000 375.000 270.861 375.000 L 166.722 375.000 155.040 354.500 C 141.786 331.239,141.794 331.250,137.500 331.250 C 131.315 331.250,131.250 331.494,131.250 354.688 L 131.250 375.000 78.125 375.000 L 25.000 375.000 25.016 364.648 C 25.069 330.750,29.005 311.127,40.258 288.672 C 61.997 245.290,107.088 215.492,153.906 213.568 C 163.020 213.194,301.585 229.831,302.734 231.438 C 307.669 238.337,320.078 254.570,320.956 255.273 C 324.920 258.453,331.250 255.292,331.250 250.133 C 331.250 245.703,312.402 220.421,307.997 218.941 C 306.392 218.402,278.711 214.592,246.484 210.475 C 214.258 206.357,187.363 202.811,186.719 202.594 C 185.761 202.271,253.786 167.370,255.645 167.230 C 255.956 167.207,256.011 168.330,255.767 169.727 C 253.985 179.931,248.142 185.647,238.030 187.079 C 233.196 187.764,231.250 189.679,231.250 193.750 C 231.250 207.451,258.069 198.724,266.061 182.422 L 268.359 177.734 268.570 101.367 L 268.780 25.000 321.890 25.000 L 375.000 25.000 374.980 123.633 M289.063 51.563 C 288.051 52.574,287.500 54.167,287.500 56.081 C 287.500 58.702,310.492 158.244,312.578 164.654 C 314.794 171.464,325.000 169.833,325.000 162.669 C 325.000 160.048,302.008 60.506,299.922 54.096 C 298.532 49.825,292.263 48.362,289.063 51.563 " stroke="none" fill="#000000" fill-rule="evenodd"></path></g></svg>