<svg id="svg" version="1.1" xmlns="http://www.w3.org/2000/svg" xmlns:xlink="http://www.w3.org/1999/xlink" width="400" height="400" viewBox="0, 0, 400,400"><g id="svgg"><path id="path0" d="M190.678 42.752 C 178.216 47.670,117.916 76.236,116.351 77.963 C 114.099 80.449,107.049 107.779,93.838 165.234 C 75.386 245.484,75.311 248.806,91.797 255.504 C 95.234 256.901,101.387 260.392,105.469 263.262 C 159.127 300.988,195.549 309.536,254.073 298.140 L 263.224 296.358 266.692 302.326 C 274.296 315.414,284.325 326.663,294.624 333.657 C 299.355 336.870,311.523 342.969,313.201 342.969 C 313.752 342.969,314.063 345.079,314.063 348.828 C 314.063 357.246,317.733 360.291,322.942 356.193 C 324.957 354.608,325.000 354.382,325.000 345.377 C 325.000 334.586,325.087 334.727,316.654 331.817 C 301.291 326.515,287.576 314.653,277.903 298.302 C 274.521 292.586,274.233 293.030,283.263 290.045 L 290.354 287.702 292.419 290.965 C 297.418 298.868,310.079 308.563,315.430 308.586 C 322.158 308.615,321.942 299.337,315.148 296.499 C 311.155 294.830,304.306 287.943,300.210 281.476 C 295.358 273.818,295.504 273.834,279.350 279.138 C 261.218 285.092,259.097 285.646,246.094 287.821 C 193.178 296.669,162.961 289.205,114.569 255.333 C 108.624 251.172,101.853 247.186,97.968 245.559 L 91.406 242.812 91.406 236.763 C 91.406 228.907,94.463 213.715,106.742 160.547 C 113.218 132.507,124.609 86.057,125.132 85.555 C 128.256 82.560,191.120 55.625,192.248 56.799 C 195.296 59.971,212.500 83.030,212.500 83.944 C 212.500 85.209,190.090 110.156,188.953 110.156 C 188.484 110.156,185.654 107.988,182.666 105.339 C 176.406 99.789,173.968 99.233,170.491 102.563 C 167.799 105.142,164.474 106.513,156.823 108.200 C 147.221 110.317,145.138 116.639,152.656 120.847 C 153.681 121.421,154.871 128.675,158.840 158.553 L 163.754 195.550 160.339 202.267 C 154.729 213.305,155.274 218.750,161.988 218.750 C 165.167 218.750,166.545 217.335,168.697 211.863 C 173.703 199.132,187.430 186.529,199.023 184.019 L 201.563 183.470 201.567 197.008 C 201.573 217.275,204.053 222.583,214.677 225.077 C 227.761 228.148,234.331 219.841,234.358 200.195 C 234.367 193.213,234.688 187.500,235.070 187.500 C 238.769 187.500,251.167 200.272,255.141 208.177 C 258.667 215.191,259.821 216.406,262.955 216.406 C 270.299 216.406,269.486 206.356,261.268 195.560 C 258.704 192.192,258.693 192.223,264.417 186.869 C 276.605 175.468,295.237 171.077,311.923 175.673 C 321.779 178.389,325.000 177.486,325.000 172.009 C 325.000 165.781,312.314 161.900,294.601 162.709 C 278.684 163.436,259.986 171.803,252.921 181.359 C 250.853 184.156,250.787 184.152,246.291 180.951 C 244.249 179.498,240.732 177.382,238.477 176.250 L 234.375 174.192 234.375 168.775 L 234.375 163.358 237.695 164.865 C 248.913 169.957,260.867 162.492,260.920 150.361 C 260.952 143.035,259.167 140.852,241.645 126.800 C 217.737 107.625,218.573 107.607,193.339 127.820 C 180.027 138.483,178.123 140.297,176.656 143.706 C 170.663 157.636,184.121 171.103,198.167 165.234 C 199.710 164.590,201.124 164.062,201.310 164.063 C 201.496 164.063,201.541 165.698,201.410 167.698 L 201.172 171.333 196.304 172.661 C 190.187 174.331,182.626 178.027,177.817 181.699 C 175.779 183.255,174.023 184.406,173.914 184.256 C 173.806 184.107,171.873 169.746,169.620 152.344 C 167.366 134.941,165.346 120.088,165.130 119.336 C 164.899 118.529,165.160 117.966,165.768 117.961 C 166.334 117.957,168.641 117.095,170.895 116.046 L 174.992 114.138 178.475 117.153 C 184.271 122.169,191.003 123.127,196.254 119.682 C 200.609 116.825,222.645 91.164,223.526 87.923 C 225.425 80.937,225.001 80.083,209.523 59.766 C 195.508 41.367,195.107 41.005,190.678 42.752 M234.376 135.938 C 248.952 147.590,250.708 149.562,249.128 152.514 C 247.082 156.336,243.487 155.687,236.876 150.302 C 230.611 145.198,228.239 144.618,224.054 147.165 C 223.963 147.220,223.699 161.623,223.468 179.171 L 223.047 211.077 221.203 212.570 C 218.836 214.485,216.806 214.463,214.844 212.500 C 213.334 210.990,213.281 209.896,213.281 180.165 C 213.281 151.262,213.192 149.282,211.819 147.587 C 209.184 144.332,205.704 145.097,199.184 150.365 C 191.714 156.400,186.719 156.411,186.719 150.391 C 186.719 147.496,214.616 124.219,218.085 124.219 C 219.013 124.219,226.026 129.264,234.376 135.938 M77.136 134.371 C 72.565 137.966,75.925 145.310,81.628 144.191 C 84.550 143.618,85.938 141.841,85.938 138.672 C 85.938 133.638,81.083 131.266,77.136 134.371 M134.415 243.561 C 132.519 245.095,132.074 248.722,133.462 251.316 C 134.156 252.614,136.556 253.500,144.957 255.563 L 155.574 258.170 158.437 261.925 C 168.778 275.485,192.114 284.222,213.281 282.459 C 230.354 281.037,234.649 279.384,234.222 274.402 C 233.783 269.291,231.580 268.503,221.873 269.987 C 195.617 274.001,179.532 268.376,163.440 249.553 C 162.452 248.397,158.778 247.114,150.578 245.061 C 137.416 241.766,136.711 241.701,134.415 243.561 M142.917 308.398 C 128.011 315.955,132.542 338.486,149.211 339.692 C 164.152 340.773,173.114 323.742,163.509 312.521 C 157.971 306.052,150.497 304.556,142.917 308.398 M154.631 320.027 C 158.653 325.140,151.489 331.176,146.875 326.563 C 144.872 324.559,144.884 321.849,146.905 319.679 C 149.139 317.281,152.593 317.437,154.631 320.027 " stroke="none" fill="#000000" fill-rule="evenodd"></path></g></svg>