<svg id="svg" version="1.1" xmlns="http://www.w3.org/2000/svg" xmlns:xlink="http://www.w3.org/1999/xlink" width="400" height="400" viewBox="0, 0, 400,400"><g id="svgg"><path id="path0" d="M125.000 0.536 C 94.426 5.602,73.034 37.136,79.368 67.801 C 82.867 84.741,83.400 85.400,136.697 138.669 C 162.061 164.020,182.813 185.083,182.813 185.476 C 182.813 185.870,179.133 192.935,174.637 201.176 C 163.843 220.959,163.489 222.219,167.804 225.497 C 172.576 229.123,175.555 226.234,184.983 208.835 L 192.684 194.623 209.728 211.681 L 226.772 228.739 223.460 241.127 C 214.225 275.659,203.432 286.978,172.848 294.205 C 151.579 299.231,137.145 307.380,122.070 322.873 C 114.074 331.090,114.033 331.473,119.922 342.751 C 128.586 359.344,131.627 357.458,69.249 374.184 C 17.491 388.062,15.902 388.402,13.793 386.071 C 10.179 382.078,12.748 378.168,20.313 376.149 L 25.391 374.794 92.773 307.516 C 157.699 242.692,160.156 240.133,160.156 237.363 C 160.156 232.681,155.575 229.960,151.316 232.112 C 150.377 232.587,120.254 262.283,84.375 298.105 L 19.141 363.235 13.854 364.856 C -6.837 371.201,-3.891 400.000,17.449 400.000 C 23.213 400.000,122.302 373.470,127.151 370.629 C 137.197 364.741,139.371 352.888,132.800 339.819 L 129.486 333.228 135.251 327.810 C 146.936 316.829,157.921 311.027,175.320 306.644 C 209.747 297.974,224.556 283.886,233.824 250.994 L 237.176 239.097 243.881 245.916 C 249.523 251.654,250.731 253.339,251.502 256.550 C 256.866 278.876,287.461 277.179,287.496 254.554 C 287.503 249.411,259.934 148.188,257.540 144.570 C 251.103 134.843,239.706 132.757,227.659 139.102 C 224.478 140.778,221.875 141.949,221.875 141.705 C 221.875 141.381,237.767 111.723,238.677 110.348 C 238.750 110.239,253.719 114.727,271.943 120.321 C 290.168 125.915,307.363 130.869,310.156 131.331 C 312.949 131.792,316.083 132.335,317.121 132.538 C 318.798 132.866,316.689 135.232,298.176 153.791 C 276.213 175.810,275.805 176.362,278.594 180.344 C 282.862 186.437,284.508 185.317,313.281 156.744 L 338.672 131.530 344.922 129.792 C 396.841 115.350,417.638 48.801,384.445 3.320 L 382.021 -0.000 357.147 -0.000 C 329.200 0.000,329.375 -0.037,329.375 5.859 C 329.375 11.654,329.642 11.719,353.562 11.719 L 374.852 11.719 376.787 15.039 C 410.300 72.537,361.816 137.163,301.019 116.031 C 300.430 115.826,301.395 113.751,303.631 110.418 C 321.839 83.264,322.912 47.562,306.384 18.750 L 302.575 12.109 308.905 11.900 C 317.382 11.620,320.682 7.346,316.753 1.736 L 315.536 -0.000 221.245 0.106 C 169.384 0.165,126.074 0.358,125.000 0.536 M290.569 18.020 C 307.716 40.776,310.287 70.854,297.238 96.046 C 293.235 103.773,287.178 111.831,285.748 111.331 C 277.632 108.495,212.579 89.062,211.200 89.063 C 208.562 89.063,205.469 92.370,205.469 95.190 C 205.469 99.125,207.542 100.610,217.135 103.544 C 222.048 105.047,226.130 106.358,226.206 106.458 C 226.505 106.855,212.073 132.781,211.544 132.796 C 207.975 132.898,197.551 111.618,193.641 96.247 C 189.959 81.769,186.820 74.146,181.185 65.996 C 167.160 45.708,134.375 31.191,134.375 45.269 C 134.375 48.506,137.151 51.153,142.188 52.720 C 162.341 58.987,175.416 73.992,180.832 97.068 C 186.123 119.605,192.493 131.671,207.500 147.577 C 217.567 158.247,217.563 158.246,229.480 152.407 C 240.278 147.117,240.740 147.018,244.355 149.222 C 247.678 151.248,246.503 147.519,261.797 204.543 C 275.638 256.149,275.756 256.769,272.193 259.104 C 268.026 261.834,265.164 259.175,262.814 250.391 L 261.560 245.703 179.744 163.672 C 89.849 73.540,94.825 79.048,91.835 66.365 C 85.823 40.859,104.541 15.266,131.250 12.472 C 134.043 12.180,169.964 11.891,211.075 11.830 L 285.821 11.719 290.569 18.020 " stroke="none" fill="#000000" fill-rule="evenodd"></path></g></svg>