<svg id="svg" version="1.1" xmlns="http://www.w3.org/2000/svg" xmlns:xlink="http://www.w3.org/1999/xlink" width="400" height="400" viewBox="0, 0, 400,400"><g id="svgg"><path id="path0" d="M77.284 2.284 C 73.580 5.987,74.033 9.742,78.848 15.243 C 85.887 23.287,91.841 37.277,93.639 50.000 C 97.678 78.562,93.729 93.026,69.998 136.592 C 38.138 195.083,33.248 220.844,43.431 276.563 C 46.519 293.464,47.356 294.922,53.967 294.922 C 61.552 294.922,63.026 291.002,60.432 277.734 C 56.251 256.352,53.589 232.065,55.554 233.227 C 56.152 233.580,81.164 252.703,111.137 275.723 C 175.351 325.041,175.009 324.816,188.867 326.966 L 192.188 327.481 192.188 355.928 L 192.188 384.375 142.770 384.375 L 93.353 384.375 91.119 378.711 C 89.890 375.596,86.627 366.719,83.867 358.984 C 77.848 342.115,77.589 341.573,74.871 340.168 C 69.197 337.234,62.844 340.877,62.948 347.006 C 63.042 352.607,78.766 394.571,82.100 398.120 L 83.866 400.000 200.093 400.000 L 316.319 400.000 318.299 398.242 C 325.161 392.151,348.832 318.803,356.558 279.688 C 368.041 221.558,363.569 197.797,329.063 133.594 C 307.830 94.087,303.924 81.245,306.075 58.010 C 307.720 40.243,312.964 25.627,321.095 16.146 C 326.622 9.701,327.134 5.969,323.051 1.886 L 321.165 0.000 200.366 0.000 L 79.567 0.000 77.284 2.284 M300.781 15.906 C 300.781 16.060,299.587 18.785,298.126 21.960 C 291.865 35.580,289.525 48.039,289.562 67.578 C 289.607 91.472,293.646 102.984,317.557 147.386 L 322.671 156.882 317.781 159.962 C 261.434 195.452,163.544 199.613,99.635 169.235 C 92.577 165.880,78.125 157.455,78.125 156.695 C 78.125 156.593,81.150 150.914,84.848 144.075 C 103.465 109.639,109.002 95.589,110.993 77.734 C 112.962 60.067,109.458 37.341,102.307 21.402 C 101.038 18.574,100.000 16.118,100.000 15.943 C 100.000 15.768,145.176 15.625,200.391 15.625 C 255.605 15.625,300.781 15.751,300.781 15.906 M47.596 40.565 C 43.365 44.796,44.181 48.980,50.519 55.545 L 55.725 60.938 32.099 60.938 L 8.474 60.938 6.190 63.221 C 3.740 65.671,3.059 70.394,4.711 73.481 C 6.629 77.065,8.666 77.344,32.902 77.344 L 55.725 77.344 50.519 82.737 C 44.414 89.060,43.405 93.476,47.198 97.269 C 52.535 102.606,55.222 101.313,70.508 86.057 L 83.594 72.996 83.594 69.140 L 83.594 65.284 70.092 51.783 C 54.691 36.381,52.749 35.413,47.596 40.565 M330.826 51.618 C 312.189 70.145,312.195 67.843,330.738 86.523 C 344.221 100.104,345.973 101.210,350.825 99.200 C 357.574 96.405,357.358 90.087,350.262 82.737 L 345.056 77.344 367.879 77.344 C 392.115 77.344,394.153 77.065,396.071 73.481 C 397.551 70.715,397.027 65.889,394.990 63.520 L 393.106 61.328 369.113 61.100 L 345.120 60.872 350.294 55.512 C 358.266 47.255,357.304 39.518,348.178 38.489 L 344.455 38.069 330.826 51.618 M194.770 115.946 L 192.578 117.830 192.333 132.462 C 192.003 152.209,194.899 157.265,204.131 153.058 C 210.421 150.193,210.924 118.181,204.731 114.867 C 201.966 113.387,197.139 113.910,194.770 115.946 M78.309 176.671 C 145.232 216.130,260.127 215.510,324.445 175.343 L 330.078 171.825 332.698 177.514 C 336.232 185.186,342.174 203.062,342.398 206.691 L 342.578 209.624 281.250 256.837 C 247.520 282.805,218.516 304.960,216.797 306.070 C 207.281 312.219,191.460 312.641,180.469 307.041 C 174.010 303.750,57.031 213.270,57.031 211.565 C 57.031 207.126,62.210 190.737,67.232 179.287 L 70.506 171.822 72.397 173.061 C 73.437 173.742,76.097 175.367,78.309 176.671 M345.800 236.523 C 343.509 273.216,330.243 325.705,310.634 375.661 L 307.367 383.984 257.980 384.186 L 208.594 384.387 208.594 355.603 L 208.594 326.819 213.474 325.462 C 222.036 323.081,225.911 320.337,286.357 273.844 C 318.997 248.738,345.843 228.181,346.014 228.161 C 346.184 228.141,346.088 231.904,345.800 236.523 M56.411 311.313 C 48.954 317.588,56.948 329.097,65.641 324.601 C 68.551 323.096,69.531 321.226,69.531 317.179 C 69.531 310.321,61.733 306.834,56.411 311.313 " stroke="none" fill="#000000" fill-rule="evenodd"></path></g></svg>